<?xml version="1.0" encoding="utf-8"?>
<!-- Generator: Adobe Illustrator 21.0.0, SVG Export Plug-In . SVG Version: 6.00 Build 0)  -->
<svg version="1.1" id="Calque_1" xmlns="http://www.w3.org/2000/svg" xmlns:xlink="http://www.w3.org/1999/xlink" x="0px" y="0px"
	 viewBox="0 0 1000 1000" style="enable-background:new 0 0 1000 1000;" xml:space="preserve">
<path d="M100.8,125.9c3.9-0.6,213.6-0.7,219.5-0.1c7.5,11.8,14.8,23.9,22.3,36c7.5,12.1,14.9,24.2,22.4,36.4
	c7.5,12.1,14.9,24.2,22.4,36.4c7.5,12.1,14.9,24.2,22.4,36.4c7.4,12,14.8,24,22.1,36c7.5,12.1,14.9,24.2,22.4,36.4
	c7.5,12.1,14.9,24.2,22.4,36.4c7.4,12.1,14.8,24.2,22.5,36.5c1.8-1.5,2.5-3.1,3.4-4.6c19.3-31.3,38.6-62.6,57.9-94
	c38.4-62.4,76.8-124.8,115.2-187.1c1-1.6,2-3.2,3.2-5c73.1,0,146,0,218.8,0c0.8,2.5,1.3,7.3,0.8,9.2c-0.5,1.6-1.4,3.2-2.4,4.6
	c-38.9,59.6-77.9,119.1-116.9,178.7c-27.4,41.9-54.7,83.8-82.1,125.7c-63.4,96.9-126.7,193.8-190.1,290.8c-1,1.6-2.1,3.2-3.2,4.8
	c-1.4,0-2.6,0-4.2,0c-1-1.5-2.1-3-3.1-4.6c-43.8-67.1-87.6-134.2-131.4-201.3c-18-27.6-36-55.2-54-82.8c-0.8-1.3-1.4-2.9-2.8-3.6
	c-1,0.3-0.8,1.1-0.8,1.6c-0.1,1.6,0,3.2,0,4.8c0,138.9,0,277.7,0,416.6c0,2.1-0.1,4.1-0.1,6.4c-1.2,0.2-2.1,0.3-3,0.4
	c-1,0.1-1.9,0-2.9,0c-65,0-129.9,0-194.9,0c-1.7,0-3.5,0-5.4,0c-0.2-1.1-0.5-2-0.6-2.9c-0.1-1.3,0-2.6,0-3.8
	c0-245.9,0-491.8,0-737.7C100.4,130.2,100.1,128,100.8,125.9z"/>
<path d="M898.4,331c0,181.9,0,363,0,544c0,0.4-0.2,0.9-0.4,1.5c-0.6,0.1-1.2,0.3-1.8,0.3c-66.8,0-133.7,0-200.8,0
	c-0.2-1.1-0.5-2-0.6-2.9c-0.1-1.3,0-2.6,0-3.8c0-74.4,0-148.8,0-223.1c0-0.3,0-0.6,0-1c-0.5-3.5,0.9-6.4,2.8-9.4
	c47.1-71.8,94.1-143.7,141.1-215.6c18.6-28.5,37.3-57,55.9-85.5C895.5,334.2,896.2,332.5,898.4,331z"/>
</svg>
